<?xml version="1.0" standalone="no"?>
<!DOCTYPE svg PUBLIC "-//W3C//DTD SVG 20010904//EN"
 "http://www.w3.org/TR/2001/REC-SVG-20010904/DTD/svg10.dtd">
<svg version="1.0" xmlns="http://www.w3.org/2000/svg"
 width="854.000000pt" height="914.000000pt" viewBox="0 0 854.000000 914.000000"
 preserveAspectRatio="xMidYMid meet">

<g transform="translate(0.000000,914.000000) scale(0.100000,-0.100000)"
fill="#000000" stroke="none">
<path d="M5770 8365 c-41 -46 -76 -89 -78 -95 -6 -18 29 3 85 52 l48 41 7 -44
c3 -24 7 -243 7 -486 l1 -443 -152 -121 c-84 -67 -195 -158 -245 -202 l-93
-80 0 -225 0 -225 -59 94 c-65 105 -318 550 -431 759 -40 74 -112 205 -160
290 -159 283 -181 324 -176 337 3 7 1 12 -5 10 -6 -1 -52 76 -102 170 -51 95
-95 173 -98 173 -4 0 -26 -37 -49 -82 -24 -46 -88 -162 -143 -258 -55 -96
-118 -212 -140 -257 l-39 -83 -112 0 -112 0 -79 -49 c-44 -27 -145 -102 -225
-167 -80 -64 -250 -195 -378 -291 -128 -95 -308 -233 -400 -306 -227 -181
-422 -327 -436 -327 -7 0 -20 25 -30 55 -18 52 -42 75 -65 61 -14 -9 -26 -227
-12 -235 19 -12 231 -13 231 -2 0 6 -14 20 -30 33 -17 12 -30 27 -30 34 0 21
114 118 322 275 112 83 248 188 303 233 223 179 360 286 496 389 79 59 171
130 204 158 88 73 145 98 243 106 45 3 82 3 82 -1 0 -4 -27 -55 -59 -114 -32
-59 -74 -136 -92 -172 l-34 -65 -85 -5 c-82 -5 -87 -7 -150 -52 -36 -26 -87
-65 -115 -87 -27 -21 -111 -83 -185 -137 -155 -113 -364 -274 -496 -384 -50
-41 -125 -101 -165 -132 -92 -71 -143 -123 -135 -137 14 -22 39 -10 119 58 45
37 159 128 252 200 94 73 242 190 330 260 157 127 398 313 463 360 26 18 41
22 67 17 21 -4 35 -13 35 -22 0 -24 -65 -146 -178 -333 -58 -97 -165 -284
-237 -416 -73 -132 -142 -256 -154 -276 l-21 -36 87 -53 c49 -29 117 -72 153
-95 287 -186 476 -309 483 -315 7 -6 -208 -188 -262 -222 -17 -10 -29 -6 -93
33 -244 152 -290 179 -296 179 -5 0 -14 -53 -21 -117 -14 -130 -29 -176 -60
-193 -26 -13 -25 -21 -21 145 1 80 7 140 15 155 30 60 29 67 -17 89 -24 11
-71 36 -105 56 -46 26 -63 32 -63 21 0 -8 -6 -21 -13 -28 -18 -18 -42 -65 -62
-120 -12 -36 -20 -45 -32 -41 -12 5 -15 2 -10 -10 3 -9 2 -16 -2 -14 -5 1 -17
-7 -27 -19 -11 -12 -30 -24 -43 -29 -12 -4 -60 -35 -105 -69 -44 -34 -137
-100 -206 -146 -127 -84 -240 -167 -251 -183 -3 -4 -9 -80 -12 -168 -8 -186
14 -151 -177 -291 -69 -50 -197 -146 -285 -212 -150 -113 -217 -165 -497 -384
-112 -87 -382 -286 -425 -313 -35 -21 -50 3 -60 91 -7 61 -11 75 -27 78 -32 7
-37 -11 -30 -125 l7 -110 116 -6 c64 -3 118 -3 121 -1 2 3 -3 19 -13 36 -21
36 -19 39 41 79 26 18 94 70 152 115 123 98 432 334 755 578 290 219 351 271
364 309 6 16 11 69 11 116 0 47 3 109 6 138 l7 52 111 84 c151 114 289 215
361 264 70 48 106 78 100 84 -2 3 5 5 16 5 18 0 18 -2 5 -12 -9 -6 -16 -16
-16 -23 0 -6 -6 -11 -12 -11 -9 0 -8 -4 2 -10 12 -8 13 -11 1 -19 -10 -7 -10
-10 -1 -13 9 -3 10 -9 3 -23 -6 -11 -11 -65 -12 -120 -1 -104 -7 -147 -48
-355 -26 -133 -49 -206 -71 -229 -8 -8 -25 -32 -38 -53 -14 -21 -34 -48 -44
-58 -11 -11 -20 -24 -20 -30 0 -5 -7 -10 -15 -10 -8 0 -15 -4 -15 -10 0 -5 -4
-10 -10 -10 -18 0 -59 -50 -54 -65 4 -10 0 -15 -15 -15 -12 0 -26 -11 -35 -29
-9 -16 -24 -31 -36 -34 -11 -3 -20 -11 -20 -19 0 -15 -62 -58 -85 -58 -8 0
-20 -9 -27 -21 -7 -11 -28 -27 -46 -36 -25 -12 -30 -18 -20 -25 8 -6 1 -7 -19
-3 -26 5 -32 4 -27 -8 5 -14 -19 -47 -35 -47 -4 0 -16 9 -25 19 -20 22 -4 40
20 21 12 -11 14 -9 11 8 -2 12 -6 24 -9 28 -7 7 24 64 35 64 4 0 7 6 7 13 0 7
18 34 40 61 22 26 40 51 40 55 0 3 14 21 30 40 17 18 30 37 30 42 0 4 9 11 21
14 11 4 18 9 15 12 -3 3 3 13 13 22 10 9 21 23 25 31 3 8 4 0 1 -17 -5 -38 7
-43 23 -10 7 12 19 33 29 46 17 23 17 24 -6 16 -17 -5 -22 -4 -19 6 3 8 14 13
26 11 25 -4 40 17 21 29 -12 8 -11 11 4 20 16 9 46 65 53 98 1 7 7 18 13 24 6
6 11 22 11 35 0 13 4 21 9 17 15 -9 36 71 45 170 2 22 7 49 11 60 6 16 3 15
-14 -5 -11 -14 -21 -30 -21 -37 0 -6 -4 -13 -8 -15 -8 -3 -130 -210 -268 -452
-21 -38 -46 -81 -54 -95 -9 -14 -32 -54 -52 -87 -20 -34 -39 -71 -43 -83 -3
-11 -13 -27 -21 -36 -19 -18 -74 -123 -74 -139 0 -7 -23 -51 -51 -97 -88 -146
-174 -299 -244 -439 -79 -156 -156 -290 -188 -330 -12 -15 -36 -31 -53 -34
-35 -7 -386 -226 -504 -314 -92 -68 -237 -207 -296 -284 -55 -71 -116 -183
-145 -268 -26 -76 -30 -212 -10 -300 18 -74 72 -185 118 -241 99 -121 334
-246 590 -315 10 -2 10 -10 2 -31 -14 -36 -4 -98 21 -133 23 -32 59 -42 105
-29 32 9 49 36 73 114 l9 30 155 3 c128 2 157 5 162 18 8 21 2 22 -179 29
-124 5 -166 10 -185 23 -17 11 -48 17 -95 17 -90 1 -201 37 -362 116 -106 52
-132 70 -205 142 -94 93 -139 168 -164 273 -38 162 15 359 142 525 102 133
372 352 621 502 122 74 151 89 157 79 7 -11 -41 -111 -89 -187 -45 -71 -103
-128 -122 -120 -19 7 -57 -14 -161 -88 -167 -120 -241 -203 -297 -338 -50
-118 -49 -285 3 -403 89 -200 448 -363 837 -378 79 -3 80 -3 83 23 l3 25 -153
13 c-177 15 -250 29 -368 74 -155 58 -229 113 -305 227 -55 83 -68 131 -69
255 0 91 2 105 28 155 63 121 87 149 256 294 100 86 160 116 160 81 0 -8 -29
-61 -63 -117 -35 -57 -85 -144 -111 -195 -26 -50 -60 -108 -76 -128 -17 -21
-30 -43 -30 -49 0 -19 72 -70 178 -127 50 -28 84 -40 52 -19 -13 9 -13 10 0
11 8 0 2 6 -13 13 l-29 13 36 17 c27 13 41 14 55 6 28 -14 58 -12 86 6 25 16
45 12 45 -9 0 -19 54 -36 75 -25 11 7 24 6 39 -1 16 -9 34 -9 66 -2 61 14 80
13 80 -3 0 -8 -4 -16 -9 -18 -5 -1 -2 -10 7 -18 14 -13 15 -12 9 4 -6 14 -4
17 8 12 10 -3 13 -2 10 5 -4 6 0 9 9 7 8 -2 51 23 94 54 l79 57 1 271 c1 199
4 276 13 287 7 8 31 24 53 35 23 11 61 35 86 52 24 17 114 72 200 121 l155 91
7 44 c3 25 7 131 7 235 1 129 5 198 14 214 14 29 313 233 375 257 40 16 47 16
103 0 34 -9 132 -53 218 -96 86 -44 167 -80 179 -80 38 0 150 60 156 84 3 12
8 66 12 120 8 110 18 129 96 181 139 94 184 150 368 455 208 346 234 380 310
400 21 6 43 17 50 25 15 18 113 75 129 75 6 0 36 -38 67 -85 32 -47 60 -85 64
-85 15 0 190 123 400 283 76 58 72 58 230 -20 l114 -56 31 18 c16 10 51 29 77
42 l47 25 65 -35 c36 -19 68 -32 71 -29 3 3 5 30 5 61 0 31 3 99 6 152 l7 96
43 27 c98 62 192 137 217 173 l27 39 0 341 c0 187 3 368 6 402 l7 62 121 101
c108 91 143 128 120 128 -9 0 -149 -107 -199 -151 -16 -15 -42 -37 -58 -50
l-27 -24 -1 -395 c-1 -408 -4 -463 -23 -458 -6 2 -46 55 -88 118 l-77 115 0
415 0 415 140 114 c76 63 139 119 139 123 0 28 -73 -19 -235 -150 -44 -36 -81
-66 -83 -67 -2 -2 -3 -173 -3 -381 l1 -379 -36 58 c-20 32 -65 102 -100 155
l-64 97 4 -267 c2 -157 0 -266 -5 -262 -5 3 -9 -1 -10 -8 0 -20 -162 -129
-170 -116 -6 9 -13 8 -26 -3 -17 -13 -17 -13 -3 6 8 11 26 29 39 40 14 11 52
43 85 71 l61 51 1 169 c0 93 4 328 9 521 l8 352 76 64 c213 177 310 259 353
299 l47 43 2 120 c2 66 2 284 1 485 -2 337 -4 363 -19 345 -13 -17 -15 -17 -9
-2 3 10 -1 29 -10 43 -13 20 -14 27 -4 39 12 14 15 14 31 -1 10 -9 21 -29 24
-45 4 -16 12 -29 20 -29 7 0 18 -7 25 -14 6 -8 27 -24 46 -35 58 -35 41 1 -43
89 -43 44 -80 80 -83 79 -3 0 -39 -38 -80 -84z m-1396 -371 c65 -76 93 -124
74 -124 -9 0 -8 -3 2 -10 10 -7 11 -10 2 -10 -7 0 -32 18 -56 40 -24 22 -45
40 -48 40 -4 0 -22 -883 -21 -1023 0 -16 -3 -25 -8 -20 -12 12 -32 681 -27
881 3 94 4 172 3 172 -1 0 -26 -22 -54 -50 -62 -60 -91 -68 -65 -17 39 74 119
187 134 187 5 0 34 -30 64 -66z m287 -495 c26 -30 49 -89 49 -126 0 -12 -19
-36 -47 -59 -27 -21 -51 -43 -55 -49 -4 -5 -8 -62 -8 -126 l0 -117 48 -41
c109 -92 230 -208 243 -234 6 -9 34 -31 64 -48 51 -29 72 -52 43 -48 -38 5
-38 2 -38 -178 0 -180 -5 -227 -21 -217 -5 3 -9 98 -9 212 l0 207 -66 54 c-91
74 -175 153 -170 158 2 3 19 -10 38 -27 55 -53 76 -56 28 -4 -25 27 -52 53
-60 58 -8 5 -28 23 -43 39 -15 16 -30 27 -34 24 -3 -4 9 -20 27 -37 18 -17 31
-33 28 -36 -3 -2 -28 17 -57 44 l-51 48 0 142 0 141 -29 16 c-75 38 -96 133
-44 195 14 18 36 36 47 40 36 15 89 0 117 -31z m-654 -376 c-3 -10 -5 -2 -5
17 0 19 2 27 5 18 2 -10 2 -26 0 -35z m605 -464 c89 -87 113 -119 90 -119 -14
0 -307 292 -322 320 -16 30 91 -62 232 -201z m586 -278 l3 -349 -55 -44 c-82
-65 -265 -201 -299 -221 -24 -15 -32 -16 -39 -5 -6 9 -7 5 -3 -11 5 -16 4 -21
-4 -17 -6 4 -11 4 -11 -1 0 -16 -63 -44 -74 -33 -7 7 -5 10 5 10 8 0 30 14 49
32 19 18 41 31 49 30 7 -2 10 1 7 6 -3 5 36 40 87 78 51 38 97 74 103 79 6 6
38 30 71 55 l61 45 7 139 c4 77 6 230 5 340 -3 268 -4 254 18 233 15 -16 17
-50 20 -366z m-1823 -281 c-3 -6 1 -7 9 -4 11 4 16 0 16 -14 0 -20 -29 -26
-42 -8 -8 12 1 36 14 36 5 0 6 -4 3 -10z m2325 -241 c0 -5 -9 -9 -21 -9 -11 0
-17 -5 -14 -10 4 -6 11 -8 16 -5 5 4 9 3 8 -2 0 -7 -61 -62 -164 -148 -105
-89 -145 -116 -156 -109 -8 4 -9 3 -5 -4 4 -7 3 -12 -2 -12 -6 0 -27 -15 -48
-34 l-38 -34 -18 21 c-18 20 -17 21 6 36 30 19 114 84 216 167 41 33 104 83
139 112 59 47 81 56 81 31z m-1694 -253 c9 -8 -22 -43 -119 -136 l-129 -125
-79 43 c-44 23 -84 42 -89 42 -9 0 -97 -62 -191 -133 -8 -7 -23 -16 -32 -22
-87 -54 -256 -188 -318 -252 -53 -54 -89 -119 -89 -159 0 -28 15 -45 154 -169
37 -33 89 -82 116 -109 42 -43 55 -49 98 -54 73 -7 253 16 274 35 10 9 45 54
79 100 56 77 63 92 78 170 l16 86 112 105 c120 113 159 140 175 124 12 -12 -1
-26 -97 -109 -33 -28 -71 -61 -85 -73 -14 -12 -32 -27 -41 -34 -10 -7 -24 -56
-39 -133 -12 -67 -26 -120 -31 -118 -4 3 -22 -14 -40 -37 -52 -68 -102 -118
-133 -135 -33 -17 -249 -30 -311 -19 -31 6 -64 34 -198 165 l-160 158 5 51
c10 99 37 134 218 280 91 73 199 156 240 184 41 29 77 55 80 58 3 3 21 17 40
30 19 14 49 36 65 51 106 93 205 178 234 202 l33 28 77 -42 c42 -23 81 -46 87
-53z m714 74 c0 -5 -5 -10 -10 -10 -6 0 -24 -10 -40 -22 -16 -12 -33 -18 -37
-13 -5 4 -2 10 4 12 7 3 23 13 35 23 25 21 48 26 48 10z m-118 -82 c-7 -7 -12
-8 -12 -2 0 14 12 26 19 19 2 -3 -1 -11 -7 -17z m-478 -68 c44 -27 95 -61 111
-75 l30 -25 -25 -18 c-13 -9 -78 -57 -145 -105 -134 -98 -127 -97 -230 -45
-48 24 -61 27 -70 16 -36 -47 -267 -209 -280 -196 -6 5 186 206 216 226 14 9
75 63 135 118 152 141 166 154 172 154 2 0 41 -22 86 -50z m1126 -31 c11 -19
10 -20 -9 -9 -12 6 -21 15 -21 20 0 18 19 11 30 -11z m-16 -25 c4 -12 2 -12
-14 -4 -11 6 -20 15 -20 20 0 14 28 1 34 -16z m-33 -5 c20 -10 20 -11 -3 -28
-13 -10 -32 -21 -43 -24 -16 -6 -15 -2 7 17 19 17 23 27 15 35 -14 14 -2 14
24 0z m-863 -132 c17 -35 32 -66 32 -69 0 -4 -52 -41 -115 -83 l-116 -76 -30
23 c-16 13 -43 34 -59 48 l-30 25 92 70 c113 86 170 125 183 125 6 0 25 -28
43 -63z m-1342 -848 c17 -27 -21 -34 -220 -39 -160 -4 -207 -8 -222 -20 -28
-22 -89 -77 -173 -155 -134 -124 -185 -171 -220 -201 -19 -16 -39 -34 -45 -39
-26 -24 -86 -67 -86 -61 0 4 12 25 28 48 15 22 32 48 37 57 6 9 64 71 130 137
66 67 149 151 183 188 99 103 74 96 344 96 160 0 239 -4 244 -11z m119 -254
c0 -19 -8 -20 -216 -25 -169 -4 -220 -8 -235 -20 -126 -97 -450 -406 -570
-542 -72 -82 -106 -112 -149 -133 -53 -27 -58 -27 -172 -20 -67 4 -121 12
-125 18 -4 6 -2 20 4 31 6 12 13 16 15 11 2 -6 50 -8 131 -5 104 4 134 9 158
24 37 24 231 220 304 306 30 35 62 71 71 80 166 160 304 279 332 285 12 2 31
6 42 9 11 2 108 3 215 2 188 -1 195 -2 195 -21z m-1714 -1166 c-10 -22 -24
-46 -31 -52 -7 -7 -10 -7 -8 -2 2 6 13 29 23 53 10 23 22 42 26 42 4 0 0 -18
-10 -41z m294 -709 c3 -5 1 -10 -4 -10 -6 0 -11 5 -11 10 0 6 2 10 4 10 3 0 8
-4 11 -10z"/>
<path d="M4536 7458 c-9 -12 -16 -39 -16 -60 0 -32 5 -40 30 -53 37 -19 65
-12 87 21 35 54 7 114 -53 114 -23 0 -38 -7 -48 -22z"/>
<path d="M4810 6813 c0 -5 9 -18 20 -28 11 -10 20 -15 20 -11 0 4 -9 16 -20
28 -11 12 -20 17 -20 11z"/>
<path d="M6477 8273 c-11 -11 -8 -291 3 -298 7 -4 10 48 10 149 0 86 -1 156
-3 156 -2 0 -7 -3 -10 -7z"/>
<path d="M6178 7579 l-138 -81 0 -188 0 -189 150 -75 c82 -42 158 -76 168 -76
11 0 31 9 45 20 14 11 28 20 31 20 12 0 116 73 116 81 0 5 7 5 17 2 12 -5 14
-3 8 7 -5 9 -4 11 3 6 6 -4 21 -2 32 4 19 10 20 20 20 207 0 175 -2 197 -17
209 -10 7 -22 13 -28 13 -5 0 -1 -6 10 -15 19 -14 20 -26 19 -190 0 -173 -1
-175 -25 -192 -13 -9 -70 -47 -127 -84 -119 -77 -89 -78 -274 10 -65 31 -118
60 -118 65 0 4 4 6 9 3 4 -3 5 13 0 37 -5 23 -8 106 -8 185 1 127 3 143 19
152 22 12 31 13 28 3 -5 -22 15 -403 22 -403 4 0 5 97 2 215 -4 202 -3 215 13
215 10 0 54 21 98 47 72 42 82 45 101 33 37 -24 77 -42 81 -38 8 8 -97 59
-111 54 -8 -3 -14 -3 -14 0 0 2 10 9 23 14 20 8 20 9 2 9 -11 0 -82 -36 -157
-80z"/>
<path d="M6916 7617 c-5 -11 -7 -122 -4 -248 l5 -230 -91 -73 c-50 -40 -192
-148 -316 -241 -124 -92 -276 -209 -337 -259 l-113 -90 0 -337 c0 -369 5 -459
26 -459 11 0 14 36 14 188 0 103 3 279 7 391 l6 203 162 132 c88 72 176 144
195 159 19 16 27 26 17 23 -11 -4 -16 -2 -12 5 4 6 14 8 22 5 16 -6 93 51 90
67 -1 5 4 12 12 15 8 3 11 0 7 -7 -12 -18 -2 -13 18 11 18 20 18 21 0 15 -18
-7 -18 -6 0 8 14 10 22 12 27 4 5 -8 8 -8 13 0 4 6 4 11 -1 12 -4 1 2 4 15 7
13 4 23 12 23 17 0 13 30 45 42 45 5 0 -1 -9 -14 -20 -13 -10 -21 -19 -16 -20
4 0 53 36 108 81 153 121 142 116 216 93 10 -3 2 4 -17 15 -40 23 -85 28 -74
9 5 -9 4 -10 -4 -3 -8 7 -13 90 -14 255 -2 153 -6 238 -12 227z m-17 -520
c-74 -67 -149 -121 -149 -109 0 6 4 12 9 14 4 2 23 15 42 30 95 76 124 98 129
98 3 0 -11 -15 -31 -33z m-334 -263 c-36 -28 -61 -36 -30 -10 17 14 35 26 40
26 6 -1 1 -8 -10 -16z"/>
<path d="M5373 7604 c-33 -14 -58 -64 -35 -72 6 -2 8 -10 5 -18 -7 -20 22 -51
63 -64 26 -9 39 -8 62 4 43 22 62 44 62 71 0 30 -14 39 -32 22 -24 -24 -51
-35 -67 -27 -9 5 -28 11 -44 15 -24 5 -26 8 -16 26 8 16 17 19 35 15 13 -4 34
-1 45 5 17 9 23 8 30 -2 4 -7 11 -11 14 -7 10 10 -46 48 -69 47 -11 0 -36 -7
-53 -15z"/>
<path d="M6506 7115 c-11 -8 -15 -15 -9 -15 6 0 16 7 23 15 16 19 11 19 -14 0z"/>
<path d="M6161 7107 c2 -1 13 -9 24 -17 19 -14 19 -14 6 3 -7 9 -18 17 -24 17
-6 0 -8 -1 -6 -3z"/>
<path d="M6421 7060 c-31 -26 -17 -26 16 0 14 11 22 20 17 20 -5 -1 -20 -10
-33 -20z"/>
<path d="M7077 6908 c6 -7 13 -20 16 -28 3 -9 6 -3 6 13 1 19 -4 27 -15 27
-12 0 -14 -4 -7 -12z"/>
<path d="M6655 6679 c-121 -88 -255 -187 -297 -220 l-78 -60 0 -384 c0 -383 0
-385 20 -373 19 12 20 24 20 369 l0 356 25 23 c13 12 22 26 20 30 -3 4 1 7 9
6 8 0 36 18 62 41 27 23 60 51 74 62 21 18 22 20 5 15 -16 -5 -17 -4 -5 4 8 6
18 8 22 5 12 -7 39 17 32 28 -3 5 1 6 9 3 8 -3 18 0 23 7 5 8 3 10 -7 4 -8 -5
-5 1 5 14 11 12 25 20 32 17 7 -3 18 2 24 10 7 8 9 14 5 14 -4 0 -2 7 5 15 7
9 19 14 27 11 8 -3 11 -2 8 4 -7 12 65 61 79 53 6 -3 8 -2 3 2 -10 12 22 45
39 38 8 -3 14 1 14 11 0 10 6 13 18 9 9 -3 14 -2 9 2 -4 5 0 17 10 27 9 10 14
18 12 18 -2 -1 -103 -73 -224 -161z m-5 -33 c0 -3 -4 -8 -10 -11 -5 -3 -10 -1
-10 4 0 6 5 11 10 11 6 0 10 -2 10 -4z"/>
<path d="M6880 6815 c-11 -13 -10 -14 4 -9 9 3 16 10 16 15 0 13 -6 11 -20 -6z"/>
<path d="M7303 6524 c-30 -23 -33 -30 -33 -80 l0 -54 -52 -34 c-52 -33 -241
-173 -307 -227 l-33 -27 6 -74 7 -73 -103 -74 c-57 -40 -201 -139 -321 -219
-179 -120 -215 -147 -205 -159 10 -12 13 -11 23 8 8 14 15 18 19 10 4 -6 2
-11 -5 -11 -7 0 -10 -3 -7 -6 9 -8 109 66 103 76 -6 9 33 40 50 40 5 -1 -2 -8
-17 -16 -28 -15 -35 -24 -19 -24 5 0 26 15 47 34 22 19 107 80 189 136 83 55
167 115 188 134 20 18 37 31 37 28 0 -3 11 5 24 17 20 19 24 32 24 84 0 34 -5
67 -10 74 -11 13 -15 9 122 117 101 79 137 90 73 23 -35 -38 -34 -37 17 7 30
27 55 54 55 60 1 17 15 36 28 36 8 0 8 -3 -1 -12 -7 -7 -12 -17 -12 -22 0 -7
4 -6 8 1 4 7 23 22 41 35 19 13 36 32 38 43 3 11 8 40 12 65 5 25 11 53 15 62
9 20 41 32 57 22 8 -5 9 -3 4 6 -6 9 -1 10 16 5 48 -13 74 -41 79 -81 7 -48 1
-76 -13 -67 -6 3 -7 1 -3 -5 4 -7 -16 -19 -56 -32 l-63 -20 54 3 c66 5 101 37
101 92 0 57 -16 84 -62 105 -57 26 -77 25 -115 -6z m-68 -184 c-3 -5 -12 -10
-18 -10 -7 0 -6 4 3 10 19 12 23 12 15 0z m-65 -49 c0 -14 -18 -23 -31 -15 -8
4 -7 9 2 15 18 11 29 11 29 0z m-800 -725 c0 -3 -13 -14 -30 -26 -16 -12 -30
-18 -30 -13 0 4 12 15 28 25 32 19 32 19 32 14z"/>
<path d="M6590 6370 c-18 -12 -2 -12 25 0 13 6 15 9 5 9 -8 0 -22 -4 -30 -9z"/>
<path d="M6536 6334 c-32 -31 -12 -154 25 -154 6 0 1 12 -10 26 -26 33 -28
100 -4 126 20 22 11 24 -11 2z"/>
<path d="M6723 6286 c-1 -32 -9 -65 -18 -80 -15 -23 -25 -26 -74 -27 -42 0
-51 -2 -34 -9 32 -13 95 -2 118 20 14 14 20 37 23 85 2 36 0 65 -4 65 -5 0
-10 -24 -11 -54z"/>
<path d="M7817 5959 c-15 -11 -24 -26 -21 -31 4 -7 2 -8 -4 -4 -10 6 -192
-128 -192 -141 0 -8 128 77 154 102 8 9 18 16 21 15 16 -1 75 48 75 63 0 21 1
21 -33 -4z"/>
<path d="M5340 5875 c-7 -9 -10 -18 -6 -22 3 -3 6 -1 6 6 0 8 7 11 15 7 8 -3
15 -1 15 4 0 17 -18 20 -30 5z"/>
<path d="M7253 5812 l-93 -47 0 -132 c0 -82 4 -133 10 -133 6 0 10 51 10 133
l0 133 81 39 c44 22 83 43 86 47 6 11 8 12 -94 -40z"/>
<path d="M5220 5780 c0 -5 5 -10 10 -10 6 0 10 5 10 10 0 6 -4 10 -10 10 -5 0
-10 -4 -10 -10z"/>
<path d="M7573 5640 c0 -36 2 -50 4 -32 2 17 2 47 0 65 -2 17 -4 3 -4 -33z"/>
<path d="M6879 5586 c-64 -50 -181 -139 -260 -197 -79 -59 -219 -163 -310
-232 l-166 -126 -6 -237 -6 -237 -27 -28 c-28 -29 -409 -304 -523 -378 -35
-22 -71 -41 -78 -41 -8 0 -74 34 -146 77 -73 42 -145 84 -162 93 -16 10 -61
36 -100 59 -38 22 -72 41 -76 41 -3 0 -51 -34 -105 -76 -54 -42 -146 -108
-204 -147 -58 -39 -167 -117 -244 -174 -76 -57 -173 -127 -215 -155 -103 -69
-105 -71 -49 -66 35 4 64 17 115 54 37 26 127 88 198 138 186 128 329 232 413
298 40 32 81 58 90 58 10 0 87 -41 172 -91 85 -49 193 -108 239 -131 73 -35
87 -39 109 -28 26 12 325 229 530 386 l112 86 0 247 0 247 28 17 c31 19 85 63
63 51 -9 -5 -12 -3 -7 5 4 6 11 9 16 6 5 -3 34 13 64 36 66 49 78 69 16 25 -9
-6 -5 -1 8 12 13 12 30 22 38 22 8 0 14 5 14 10 0 6 6 9 13 8 6 -2 11 3 9 10
-1 8 2 11 7 8 9 -6 211 139 211 150 0 3 -5 2 -12 -2 -7 -4 -8 -3 -4 4 4 6 12
9 19 7 7 -3 26 6 42 21 l30 25 -30 -17 -30 -16 26 23 c28 26 270 217 291 230
7 4 10 10 8 12 -3 3 -57 -36 -121 -87z m-299 -250 c0 -2 -17 -16 -37 -31 l-38
-26 35 30 c34 31 40 35 40 27z m-90 -70 c0 -2 -8 -10 -17 -17 -16 -13 -17 -12
-4 4 13 16 21 21 21 13z"/>
<path d="M5803 5582 l-93 -55 0 -132 0 -132 96 -47 c109 -53 99 -54 224 14
l65 35 3 127 3 126 -92 57 c-50 31 -96 58 -103 60 -6 2 -53 -22 -103 -53z
m197 -19 l90 -56 0 -78 c0 -73 -13 -112 -23 -72 -4 14 -11 -52 -9 -77 0 -3
-35 -25 -79 -49 l-80 -43 -45 17 c-48 18 -73 42 -33 31 20 -6 21 -5 6 4 -9 6
-21 9 -26 5 -5 -3 -21 0 -36 7 -21 9 -26 17 -22 37 5 24 4 25 -9 6 -12 -17
-14 -5 -14 96 0 77 4 121 13 132 11 15 150 94 170 96 4 1 48 -25 97 -56z"/>
<path d="M5755 5280 c-9 -15 21 -23 42 -11 15 9 13 10 -11 5 -21 -5 -27 -4
-22 5 4 6 5 11 2 11 -3 0 -8 -5 -11 -10z"/>
<path d="M5950 5280 c0 -5 5 -10 11 -10 5 0 7 5 4 10 -3 6 -8 10 -11 10 -2 0
-4 -4 -4 -10z"/>
<path d="M5976 5260 c-22 -10 -43 -17 -47 -14 -5 3 -9 0 -9 -5 0 -17 21 -12
70 14 54 29 41 34 -14 5z"/>
<path d="M7550 5520 c-9 -6 -10 -10 -3 -10 6 0 15 5 18 10 8 12 4 12 -15 0z"/>
<path d="M7440 5465 c-25 -13 -40 -24 -35 -24 6 0 30 11 55 24 25 13 41 24 35
24 -5 0 -30 -11 -55 -24z"/>
<path d="M7958 5469 c-49 -25 -51 -31 -32 -79 15 -37 20 -41 42 -35 16 4 28 1
33 -7 7 -10 9 -9 9 4 0 9 8 19 18 21 11 3 9 5 -8 6 -32 1 -56 35 -38 55 7 7
21 11 31 8 19 -5 19 -4 2 22 -9 14 -18 26 -19 25 0 -1 -18 -10 -38 -20z"/>
<path d="M7289 5436 c29 -18 51 -24 65 -20 17 6 13 9 -24 19 -25 7 -54 15 -65
20 -11 4 0 -5 24 -19z"/>
<path d="M8046 5368 c-16 -16 -24 -28 -18 -28 16 0 55 35 51 46 -2 5 -17 -3
-33 -18z"/>
<path d="M6860 5243 c-25 -13 -62 -36 -83 -49 -45 -29 -170 -103 -209 -123
l-28 -14 0 -221 1 -221 54 -47 54 -46 -117 -79 c-64 -43 -165 -112 -224 -152
l-107 -74 -65 28 -66 28 -62 -39 c-35 -21 -112 -71 -173 -110 l-110 -72 5
-239 5 -238 46 -25 c63 -35 111 -70 107 -80 -2 -5 -118 -90 -258 -190 -300
-213 -306 -219 -291 -249 7 -13 17 -19 24 -14 21 13 465 341 525 388 31 25 62
45 67 45 6 0 36 -14 68 -31 l59 -31 91 56 c51 30 114 70 140 88 l48 33 2 265
1 265 3 -257 c2 -142 7 -258 11 -258 4 0 19 10 34 23 32 26 31 23 29 292 l-1
201 -91 44 c-89 44 -146 85 -101 73 23 -6 112 50 316 194 65 46 124 87 131 90
8 2 33 -9 57 -25 24 -16 61 -39 84 -50 l41 -21 69 41 c38 23 105 64 149 91 44
28 97 60 117 71 l38 21 0 151 c0 83 -3 187 -7 230 -7 71 -9 61 -13 -101 l-5
-180 -50 -32 c-27 -18 -51 -38 -53 -43 -2 -6 -11 -10 -20 -11 -9 0 -12 -3 -6
-5 18 -7 59 12 98 46 l36 32 0 -30 c0 -27 -9 -35 -97 -89 -54 -33 -133 -81
-176 -108 -42 -26 -81 -45 -85 -41 -4 4 1 12 11 17 9 6 15 15 11 21 -4 6 1 8
12 4 11 -3 25 -2 33 3 9 6 4 8 -16 7 -16 -1 -37 -9 -47 -19 -10 -9 -20 -17
-22 -17 -9 0 -49 23 -55 31 -3 5 -21 10 -40 12 l-34 2 -11 240 -11 240 -1
-221 c-2 -200 -4 -223 -19 -229 -10 -3 -19 -1 -21 4 -2 6 -10 11 -17 11 -8 0
-17 5 -21 12 -4 6 -3 8 3 5 5 -3 10 0 10 7 0 8 -6 12 -14 9 -7 -3 -13 1 -13
10 0 8 -8 14 -17 13 -28 -2 -35 66 -28 257 3 99 8 184 11 191 3 7 26 22 51 35
37 18 48 20 54 9 6 -9 9 -7 9 9 0 15 16 31 53 55 28 18 60 36 71 40 10 5 30
17 45 27 14 10 35 20 46 23 11 2 16 6 10 10 -5 3 -30 -5 -55 -19z"/>
<path d="M7250 5241 c0 -5 60 -35 134 -66 173 -73 242 -114 333 -199 89 -83
135 -151 168 -251 57 -168 15 -367 -120 -569 -82 -124 -253 -279 -507 -461
-53 -39 -94 -74 -91 -79 4 -5 1 -6 -5 -2 -15 9 -92 -52 -86 -68 3 -7 -8 -18
-23 -24 -26 -11 -27 -11 -9 3 18 14 19 16 3 28 -9 6 -37 46 -62 87 -40 66 -43
76 -28 85 9 6 90 63 181 127 446 317 578 490 558 733 -6 77 -48 176 -109 256
-36 46 -181 153 -201 146 -27 -9 -7 -47 48 -92 149 -121 194 -214 184 -380 -4
-63 -12 -90 -48 -163 -55 -110 -150 -207 -375 -382 -88 -68 -184 -144 -213
-167 -29 -24 -56 -43 -60 -43 -7 0 -69 100 -220 357 -87 148 -90 152 -111 137
-21 -15 -21 -19 -21 -347 0 -183 -4 -337 -8 -343 -11 -16 -330 -237 -395 -274
-47 -26 -64 -31 -95 -26 -130 21 -113 25 -209 -46 -49 -35 -121 -84 -160 -107
l-72 -42 21 -35 c25 -42 21 -48 -79 -115 -58 -39 -73 -55 -73 -74 0 -14 6 -25
13 -25 7 0 49 25 94 55 46 30 86 55 91 55 12 0 72 -82 66 -91 -3 -5 -63 -50
-134 -100 -71 -50 -131 -97 -134 -105 -3 -8 -2 -23 2 -34 7 -19 17 -15 122 60
135 96 165 113 188 105 20 -6 72 -77 72 -97 0 -7 -21 -26 -47 -43 -26 -16
-175 -125 -330 -241 -193 -145 -293 -214 -317 -218 -19 -4 -92 -2 -161 4 -98
8 -147 17 -213 41 -48 17 -94 33 -102 35 -8 3 -53 -26 -100 -64 -47 -37 -125
-97 -175 -132 -122 -87 -165 -123 -165 -138 0 -21 26 -24 62 -7 32 17 210 146
237 173 40 39 124 94 144 94 12 0 69 -11 127 -25 118 -29 338 -45 382 -28 14
5 82 52 150 104 68 51 179 133 248 182 69 49 160 118 204 153 88 72 86 72 147
-12 50 -68 43 -85 -68 -156 -54 -34 -132 -85 -173 -113 -427 -290 -502 -332
-595 -331 -65 0 -198 22 -336 55 -105 25 -100 27 -269 -99 -162 -121 -241
-173 -259 -170 -9 2 -20 13 -26 25 -20 40 -37 53 -71 53 -28 0 -38 -6 -54 -32
-30 -49 -25 -70 27 -116 25 -23 48 -42 49 -42 2 0 25 16 50 36 26 19 65 44 88
56 34 17 138 89 337 235 25 18 35 20 65 11 52 -14 160 -37 229 -49 70 -12 125
-30 125 -41 0 -12 -87 -53 -178 -83 -98 -32 -167 -76 -282 -179 -84 -75 -246
-194 -254 -185 -7 9 -14 106 -8 116 10 15 220 157 265 178 27 13 37 24 37 41
0 12 -4 25 -8 28 -8 4 -284 -172 -311 -199 -9 -8 -15 -43 -18 -92 -5 -93 -7
-103 -29 -103 -28 0 -257 142 -301 187 -24 24 -52 43 -63 43 -32 0 -50 41 -57
127 l-6 79 64 55 c35 30 88 72 117 93 57 41 62 51 32 61 -22 7 -45 -9 -179
-120 l-72 -60 7 -92 c9 -122 16 -122 -164 -1 -37 25 -42 37 -42 115 l0 72 58
43 c210 154 218 162 202 187 -10 17 -30 6 -149 -83 -156 -118 -163 -126 -154
-207 3 -32 3 -59 -1 -59 -17 0 -105 51 -134 78 -26 25 -32 38 -32 72 0 36 6
48 38 77 20 19 71 58 112 86 111 75 240 178 240 193 0 7 -9 16 -20 19 -23 7
-56 -15 -280 -187 l-135 -104 0 -67 c0 -37 -3 -67 -7 -67 -4 0 -15 10 -25 23
-34 42 -76 69 -85 55 -4 -7 -8 -75 -8 -151 l0 -139 29 -27 c30 -28 31 -35 43
-304 0 -17 4 -24 8 -17 6 9 9 9 13 -1 3 -8 4 2 1 21 -3 27 0 22 12 -17 17 -54
27 -65 38 -38 3 8 9 15 15 15 13 0 20 -49 7 -53 -6 -2 -11 -27 -12 -55 0 -33
-7 -58 -17 -70 -10 -10 -17 -24 -17 -31 0 -22 -24 -6 -30 20 -6 21 -7 20 -14
-13 -8 -46 -22 -56 -29 -22 -3 17 -1 24 8 20 8 -3 11 2 8 14 -4 17 -12 12 -48
-28 -45 -49 -52 -69 -13 -36 l23 19 -19 -23 c-11 -12 -17 -24 -15 -26 2 -2 56
-34 119 -72 63 -37 156 -92 205 -123 50 -30 95 -54 102 -54 7 0 11 -5 10 -10
-3 -14 136 -97 153 -91 8 3 11 2 7 -2 -11 -12 84 -75 104 -69 10 3 20 1 24 -4
3 -7 0 -8 -9 -5 -51 20 19 -31 119 -86 33 -18 95 -57 138 -87 l78 -54 33 20
c18 12 63 41 100 66 37 25 71 45 76 45 12 0 210 114 296 170 39 26 89 57 112
70 23 13 38 28 35 33 -3 6 -1 7 6 3 6 -4 42 10 79 31 37 20 90 50 117 65 28
15 49 32 47 38 -1 6 2 9 8 5 5 -3 49 18 97 46 277 166 369 223 375 233 4 6 8
8 8 4 0 -4 45 20 101 55 144 89 227 140 282 171 26 15 45 31 42 36 -3 6 1 7 9
4 9 -3 16 -1 16 5 0 6 4 10 8 8 4 -1 39 19 77 44 88 58 107 70 233 144 56 34
99 65 95 70 -5 4 -2 5 5 1 6 -4 24 1 40 12 15 10 35 22 46 25 16 6 16 10 5 25
-11 14 -11 15 1 4 18 -15 34 -16 24 0 -4 7 -3 8 4 4 16 -10 54 12 46 26 -4 6
-3 8 4 4 14 -9 84 33 75 47 -3 6 -1 7 5 3 21 -13 167 78 156 96 -4 7 -2 8 5 4
6 -4 28 3 47 15 l36 22 -23 13 c-13 7 -20 13 -16 14 5 0 17 -5 28 -10 15 -9
41 4 149 70 118 74 156 102 114 86 -9 -3 -12 -2 -9 5 4 5 16 7 27 3 15 -4 18
-3 13 6 -5 9 -4 11 4 6 7 -5 29 3 51 18 22 14 43 26 46 26 14 0 224 133 224
142 0 16 -26 61 -179 311 -81 133 -155 257 -165 274 l-16 33 157 117 c175 131
192 142 212 143 8 0 33 -20 57 -45 l42 -45 20 27 c22 32 52 92 52 105 0 4 -7
8 -15 8 -21 0 -19 20 3 21 14 0 14 2 -3 9 -11 5 -15 9 -8 9 6 1 10 9 9 19 -3
15 -15 17 -92 17 l-89 0 -3 -50 c-4 -49 -5 -51 -60 -87 -32 -20 -113 -77 -182
-128 l-125 -91 -42 92 c-24 50 -43 95 -43 100 0 4 44 38 98 75 135 94 322 237
487 374 77 63 164 133 193 154 28 21 68 58 88 82 33 39 41 44 79 44 24 0 48
-6 54 -14 6 -7 14 -40 17 -72 7 -77 22 -124 39 -124 11 0 14 26 5 38 -2 1 -3
14 -4 30 -5 64 -18 137 -26 140 -4 2 -6 12 -3 22 5 19 0 20 -85 20 -50 0 -103
-5 -119 -11 l-28 -12 33 -10 c39 -12 40 -21 5 -44 -16 -10 -127 -97 -248 -193
-293 -234 -635 -493 -629 -475 3 8 -13 48 -35 90 -23 41 -41 81 -41 89 0 14
94 91 273 226 141 105 323 267 388 344 155 185 230 412 199 606 -17 106 -39
157 -105 244 -100 133 -198 199 -432 292 -152 60 -143 57 -143 45z m-613
-1148 c-3 -10 -5 -2 -5 17 0 19 2 27 5 18 2 -10 2 -26 0 -35z m253 -369 c0
-15 -109 -104 -235 -193 -158 -111 -212 -142 -150 -86 43 38 179 135 190 135
11 0 110 77 144 114 32 33 51 44 51 30z m250 -128 c0 -2 -8 -10 -17 -17 -16
-13 -17 -12 -4 4 13 16 21 21 21 13z m-40 -36 c0 -5 -5 -10 -11 -10 -5 0 -7 5
-4 10 3 6 8 10 11 10 2 0 4 -4 4 -10z m123 -513 c-44 -36 -136 -102 -160 -116
-43 -22 -23 -3 50 47 39 28 83 60 97 71 14 12 29 21 33 21 5 0 -4 -10 -20 -23z
m-109 -203 c3 -9 6 -22 6 -30 0 -14 -147 -130 -155 -122 -12 11 31 77 79 120
57 53 61 55 70 32z m55 -440 c17 -4 31 -12 31 -19 0 -16 17 -22 53 -20 23 2
27 -2 25 -19 -2 -16 2 -21 17 -20 28 1 30 -33 4 -41 -12 -4 -18 -13 -15 -21 3
-7 -3 -18 -14 -24 -28 -15 -37 -12 -14 4 18 13 17 14 -15 13 -28 -2 -35 -6
-38 -27 -2 -19 -1 -22 7 -10 9 13 11 13 20 0 13 -20 13 -30 -1 -30 -5 0 -8 4
-5 8 11 19 -53 10 -70 -9 -17 -19 -17 -20 2 -13 18 6 18 6 -1 -9 -11 -9 -31
-17 -45 -17 -19 0 -22 -2 -10 -10 12 -8 12 -10 -3 -16 -9 -3 -17 -11 -17 -18
0 -7 -18 -11 -47 -11 -40 0 -47 3 -55 25 -4 14 -22 34 -38 45 -21 14 -30 28
-30 48 0 15 -4 27 -10 27 -5 0 -12 11 -16 25 -5 21 -12 25 -45 25 -28 0 -39
-4 -39 -15 0 -11 11 -15 39 -15 39 0 51 -12 51 -48 -1 -16 -2 -16 -13 -1 -8
11 -36 19 -80 24 -37 4 -67 11 -67 16 0 4 9 6 20 4 18 -3 20 2 20 44 0 27 6
53 13 59 7 6 84 16 172 22 88 6 162 15 163 20 4 12 9 12 51 4z m213 -73 c-10
-6 -6 -10 14 -15 22 -6 25 -9 13 -17 -20 -12 -37 -11 -19 2 12 9 11 10 -6 6
-20 -4 -23 3 -15 31 1 1 7 2 14 2 9 0 9 -3 -1 -9z m-502 -161 c0 -5 -4 -10
-10 -10 -5 0 -10 5 -10 10 0 6 5 10 10 10 6 0 10 -4 10 -10z m140 -106 c0 -3
-6 -4 -12 -1 -7 2 -20 -1 -28 -9 -13 -11 -15 -9 -15 16 -1 28 0 28 27 14 15
-8 28 -17 28 -20z m-1165 16 c3 -5 1 -10 -4 -10 -6 0 -11 5 -11 10 0 6 2 10 4
10 3 0 8 -4 11 -10z m382 -82 c-3 -8 -6 -5 -6 6 -1 11 2 17 5 13 3 -3 4 -12 1
-19z m-317 -4 c0 -8 -5 -12 -10 -9 -6 4 -8 11 -5 16 9 14 15 11 15 -7z m929
13 c-2 -1 -13 -9 -24 -17 -19 -14 -19 -14 -6 3 7 9 18 17 24 17 6 0 8 -1 6 -3z
m-49 -27 c0 -5 -4 -10 -10 -10 -5 0 -10 5 -10 10 0 6 5 10 10 10 6 0 10 -4 10
-10z m-550 -38 c-6 -2 -10 -21 -10 -43 0 -28 4 -39 15 -39 8 0 15 -5 15 -10 0
-6 -7 -13 -15 -16 -24 -10 -19 -52 8 -57 21 -3 21 -4 3 -12 -13 -6 -21 -5 -24
3 -4 13 -32 17 -32 4 0 -23 43 -42 91 -41 55 2 85 -14 59 -32 -12 -8 -10 -9 7
-4 12 3 24 1 28 -5 6 -10 -7 -14 -34 -11 -7 2 -10 -2 -6 -9 5 -9 0 -8 -16 1
-22 11 -23 11 -11 -4 12 -14 11 -16 -5 -14 -27 2 -84 -24 -77 -35 3 -5 15 -6
27 -2 30 9 20 0 -23 -20 -29 -14 -31 -14 -16 -1 26 20 -2 21 -30 0 -26 -20
-40 -19 -23 2 12 15 12 16 -4 10 -11 -4 -16 -3 -12 3 3 6 16 8 29 4 20 -5 22
-2 18 30 -2 20 -8 36 -12 36 -5 0 -10 10 -12 22 -5 32 -28 35 -28 4 0 -24 -4
-26 -40 -26 -22 0 -40 5 -40 10 0 6 7 10 15 10 11 0 15 11 15 40 0 29 -4 40
-15 40 -10 0 -15 -10 -16 -27 0 -16 -3 -22 -6 -15 -2 6 -20 12 -39 12 -24 0
-34 5 -34 15 0 8 -7 15 -15 15 -22 0 -18 18 8 31 12 7 29 20 38 31 9 10 21 18
28 18 9 0 17 54 12 83 -1 5 4 5 11 1 19 -12 88 -11 88 1 0 6 3 6 8 0 13 -18
56 -12 60 9 3 15 6 16 13 5 5 -8 4 -15 -1 -17z m510 -22 c0 -5 -5 -10 -11 -10
-5 0 -7 5 -4 10 3 6 8 10 11 10 2 0 4 -4 4 -10z m-15 -28 c-3 -3 -11 0 -18 7
-9 10 -8 11 6 5 10 -3 15 -9 12 -12z m-797 -44 c-6 -18 -28 -21 -28 -4 0 9 7
16 16 16 9 0 14 -5 12 -12z m372 -53 c0 -8 -7 -15 -15 -15 -16 0 -20 12 -8 23
11 12 23 8 23 -8z m265 5 c-3 -5 -12 -10 -18 -10 -7 0 -6 4 3 10 19 12 23 12
15 0z m-85 -30 c13 -9 13 -10 0 -11 -8 -1 -19 -1 -24 0 -4 1 -23 -7 -41 -18
l-32 -19 0 25 c0 18 2 21 8 12 7 -12 13 -11 36 3 33 20 34 21 53 8z m-1040
-650 c8 -5 11 -10 5 -10 -5 0 -17 5 -25 10 -8 5 -10 10 -5 10 6 0 17 -5 25
-10z m-1875 -238 c-3 -3 -11 0 -18 7 -9 10 -8 11 6 5 10 -3 15 -9 12 -12z
m1299 -58 c4 -9 3 -20 0 -23 -4 -3 -9 0 -11 7 -3 6 -9 12 -14 12 -6 0 -6 -8 1
-19 7 -14 7 -22 -2 -27 -7 -5 -8 -3 -3 6 6 9 0 10 -26 5 -33 -7 -33 -7 -18 11
9 11 14 25 12 32 -7 19 54 15 61 -4z m-969 -110 c1 -13 -5 -20 -16 -20 -10 0
-16 4 -13 7 2 4 -1 11 -7 15 -8 4 -7 9 2 15 20 12 32 6 34 -17z m855 22 c0 -2
-7 -7 -16 -10 -8 -3 -12 -2 -9 4 6 10 25 14 25 6z"/>
<path d="M7120 2366 c0 -9 7 -12 20 -9 11 3 20 9 20 14 0 5 -9 9 -20 9 -11 0
-20 -6 -20 -14z"/>
<path d="M7040 2115 c0 -9 6 -12 15 -9 8 4 12 10 9 15 -8 14 -24 10 -24 -6z"/>
<path d="M6078 1879 c-3 -18 -2 -46 3 -63 5 -25 7 -18 8 32 1 67 -4 81 -11 31z"/>
<path d="M4939 5176 c-215 -143 -336 -229 -526 -371 -184 -136 -202 -152 -207
-185 -3 -19 -6 -141 -6 -271 l0 -235 -27 -26 c-53 -49 -438 -317 -485 -337
l-46 -19 -67 35 c-61 32 -69 33 -103 23 -20 -7 -54 -23 -74 -36 l-38 -24 0
-91 0 -90 44 -20 c70 -31 126 -34 178 -12 40 18 47 26 66 81 22 58 25 62 128
132 128 87 408 293 447 328 l27 26 0 256 c0 190 3 260 13 271 19 24 204 171
282 224 72 50 273 200 406 304 l77 60 73 -55 c41 -30 79 -59 86 -64 7 -6 14
-6 18 -1 3 5 -4 13 -16 16 -11 4 -18 9 -16 12 3 2 15 -1 27 -7 28 -15 17 -28
-76 -86 l-74 -46 0 -219 0 -219 40 -25 c22 -14 107 -62 189 -106 l150 -81 73
43 c40 23 121 74 181 113 l107 70 0 221 0 222 -187 106 -186 106 -71 -41 c-39
-23 -80 -47 -91 -54 -19 -12 -28 -8 -95 42 -41 31 -87 64 -101 75 l-26 18 -94
-63z m561 -94 c-7 -3 -19 3 -28 13 -16 15 -15 16 12 4 15 -7 23 -15 16 -17z
m39 2 c4 3 8 -1 8 -9 0 -24 -23 -17 -24 8 0 12 1 16 4 9 3 -6 8 -10 12 -8z
m171 -131 c0 -25 -3 -44 -6 -41 -10 10 -13 88 -3 88 5 0 9 -21 9 -47z"/>
<path d="M7067 5169 c7 -7 15 -10 18 -7 3 3 -2 9 -12 12 -14 6 -15 5 -6 -5z"/>
<path d="M5930 4810 c0 -139 4 -230 10 -230 5 0 19 5 32 10 l23 11 -3 219 -3
220 -29 0 -30 0 0 -230z"/>
<path d="M6327 4783 c-4 -3 -7 -71 -7 -149 0 -131 2 -144 19 -154 25 -13 34
-13 26 0 -3 5 0 7 8 4 8 -3 20 2 27 11 11 13 11 35 3 113 -15 134 -46 206 -76
175z"/>
<path d="M2300 4635 c0 -8 5 -15 10 -15 6 0 10 7 10 15 0 8 -4 15 -10 15 -5 0
-10 -7 -10 -15z"/>
<path d="M4535 4591 c-51 -23 -60 -35 -73 -95 -14 -65 -3 -90 55 -126 57 -36
79 -37 142 -5 l49 24 6 63 c8 67 -4 118 -27 118 -7 0 -30 9 -52 20 -47 24 -50
24 -100 1z"/>
<path d="M2288 4583 c7 -3 16 -2 19 1 4 3 -2 6 -13 5 -11 0 -14 -3 -6 -6z"/>
<path d="M6969 4543 c-13 -16 -12 -17 4 -4 9 7 17 15 17 17 0 8 -8 3 -21 -13z"/>
<path d="M6825 4490 c27 -12 43 -12 25 0 -8 5 -22 9 -30 9 -10 0 -8 -3 5 -9z"/>
<path d="M1940 4323 c-105 -71 -350 -252 -472 -350 -68 -54 -181 -141 -253
-193 -155 -113 -408 -315 -449 -359 -28 -29 -34 -31 -101 -31 -41 0 -78 5 -88
13 -9 6 -24 38 -32 70 -8 32 -20 68 -26 78 -13 25 -42 21 -48 -6 -4 -22 30
-205 38 -206 4 0 62 -1 131 -2 l125 -2 85 86 c47 47 148 132 225 189 77 57
185 141 240 186 55 44 179 141 276 215 327 248 397 304 408 327 15 30 5 28
-59 -15z"/>
<path d="M3642 4191 c-48 -36 -62 -63 -62 -124 0 -53 21 -84 74 -108 53 -24
107 -24 156 1 37 19 39 22 45 82 8 80 -3 110 -56 144 -65 41 -105 42 -157 5z"/>
<path d="M5165 4086 c-17 -12 -18 -18 -7 -52 6 -22 32 -75 57 -118 25 -44 45
-85 45 -91 0 -6 -11 -22 -25 -35 -27 -26 -65 -116 -65 -157 0 -23 32 -63 51
-63 22 0 39 35 39 79 0 69 15 104 60 137 22 16 42 37 45 46 9 25 -13 58 -45
70 -34 11 -50 50 -50 119 0 26 -3 54 -6 63 -8 20 -73 22 -99 2z"/>
<path d="M4946 4044 c-3 -26 -6 -62 -6 -81 0 -42 -48 -108 -85 -117 -39 -10
-32 -40 16 -61 51 -23 67 -54 75 -144 4 -41 12 -71 18 -71 6 0 22 -3 35 -7
l24 -6 -7 74 c-8 87 -32 168 -52 176 -20 8 -18 17 19 75 44 68 69 138 65 174
-3 27 -7 29 -49 32 l-46 3 -7 -47z"/>
<path d="M2804 3902 c-16 -8 -86 -51 -156 -95 l-128 -80 0 -207 0 -207 104
-61 c57 -34 115 -71 130 -83 l26 -20 -94 -70 c-52 -38 -99 -69 -106 -69 -6 0
-63 27 -126 61 l-114 61 -82 -44 c-46 -25 -125 -71 -175 -104 l-93 -59 0 -201
0 -202 30 -12 c34 -14 53 -41 44 -64 -5 -14 -117 -104 -373 -300 -64 -48 -118
-90 -121 -93 -9 -8 33 -33 56 -33 13 0 25 8 29 19 5 18 61 63 226 183 43 31
110 83 150 115 39 32 77 62 85 68 18 13 105 -10 173 -46 30 -15 59 -25 65 -22
6 4 49 32 96 63 47 31 109 69 139 85 30 17 57 40 62 53 5 13 9 117 9 232 l0
209 56 43 c68 51 302 202 396 255 l68 38 -3 214 -2 214 -145 78 c-181 98 -188
101 -226 81z"/>
<path d="M4597 3643 c-15 -4 -17 -13 -15 -56 l3 -52 42 -6 c42 -5 76 -28 94
-62 6 -10 14 -69 19 -132 12 -138 35 -206 90 -260 22 -21 40 -44 40 -50 0 -6
-12 -22 -26 -36 -68 -63 -99 -143 -119 -309 -16 -141 -23 -153 -99 -164 -43
-7 -44 -8 -51 -51 -3 -25 -4 -49 -1 -54 9 -15 104 -22 145 -11 112 30 145 88
172 300 11 83 25 163 33 178 22 42 61 73 118 96 44 17 54 26 56 48 3 23 -3 30
-40 49 -131 66 -138 77 -158 257 -16 147 -34 199 -84 247 -58 56 -152 85 -219
68z"/>
<path d="M4058 3606 c-39 -30 -47 -43 -66 -108 -11 -40 -28 -122 -37 -181 -8
-60 -21 -121 -29 -136 -18 -34 -81 -78 -124 -87 -34 -7 -62 -36 -62 -65 0 -10
22 -26 63 -44 113 -50 128 -74 152 -248 35 -256 69 -311 199 -327 86 -10 106
-1 106 50 0 31 -5 43 -25 56 -13 8 -28 13 -34 10 -36 -22 -77 52 -86 155 -12
143 -25 196 -66 260 -22 33 -45 62 -53 65 -29 11 -25 35 12 72 58 58 91 136
101 240 17 161 45 212 117 212 l34 0 0 55 0 55 -79 0 c-74 0 -81 -2 -123 -34z"/>
<path d="M3134 3002 c-6 -4 -14 -29 -18 -57 -4 -36 -14 -58 -36 -80 -28 -29
-30 -36 -30 -106 0 -73 1 -76 35 -109 39 -38 43 -55 19 -81 -35 -39 18 -54 54
-16 28 30 28 53 -3 102 -31 51 -31 63 4 168 17 48 33 107 36 131 6 39 5 44
-17 49 -29 8 -31 8 -44 -1z"/>
<path d="M3356 3003 c-16 -4 -18 -12 -12 -56 10 -84 26 -129 57 -158 16 -15
29 -31 29 -36 0 -4 -21 -42 -45 -83 -63 -104 -59 -150 13 -150 32 0 33 1 27
29 -10 48 13 109 61 161 l44 47 -49 44 c-42 39 -50 52 -61 104 -14 71 -27 105
-37 104 -5 -1 -16 -3 -27 -6z"/>
<path d="M2792 2960 c-44 -32 -51 -50 -28 -69 30 -25 96 22 96 70 0 37 -16 37
-68 -1z"/>
<path d="M2930 2503 c-14 -9 -74 -56 -135 -103 -135 -105 -366 -272 -420 -305
l-40 -23 -50 18 c-28 10 -79 30 -114 45 l-63 27 -52 -37 c-28 -20 -85 -60
-126 -89 l-75 -53 -3 -171 -2 -172 62 -31 c35 -17 82 -40 106 -52 79 -39 54
-74 -168 -231 -74 -52 -144 -101 -154 -109 -17 -12 -18 -19 -10 -46 l9 -33 61
44 c74 51 273 212 364 292 36 31 108 84 161 117 114 70 109 57 109 280 l0 145
33 31 c17 17 122 96 232 175 293 209 374 272 375 286 0 18 -71 15 -100 -5z"/>
<path d="M3504 2432 c-244 -169 -378 -268 -416 -307 -27 -27 -28 -29 -30 -174
l-3 -146 -126 -65 c-69 -36 -161 -87 -202 -115 l-77 -50 0 -175 0 -176 123
-72 c68 -40 133 -72 143 -72 11 0 62 27 113 60 51 34 111 70 132 81 l39 19 0
180 c0 203 7 185 -90 242 -37 23 -56 41 -58 56 -5 30 14 52 44 52 l24 0 0 160
0 159 63 46 c149 110 228 165 313 218 93 58 184 131 184 148 0 5 -15 9 -32 9
-24 -1 -63 -22 -144 -78z"/>
<path d="M2915 2249 c-27 -22 -84 -64 -125 -94 -108 -79 -204 -165 -205 -186
-1 -10 4 -15 11 -12 7 2 10 11 7 19 -7 19 2 18 23 -3 17 -17 18 -17 11 0 -7
18 7 24 18 7 10 -16 29 -12 53 10 12 12 28 17 37 14 18 -7 40 -51 36 -71 -1
-7 8 -13 19 -13 17 0 20 4 15 20 -4 11 -2 20 4 20 6 0 11 -5 11 -11 0 -6 6 -9
13 -6 7 3 24 -4 38 -15 13 -11 18 -17 12 -13 -8 4 -13 0 -13 -9 0 -9 -6 -16
-14 -16 -8 0 -18 -5 -21 -11 -4 -5 10 -3 32 6 21 9 44 19 51 22 9 4 12 40 12
133 l0 128 45 38 c44 38 45 40 30 62 -22 31 -42 27 -100 -19z m-230 -209 c-3
-5 1 -10 9 -10 18 0 19 -2 10 -24 -5 -13 -9 -14 -20 -5 -8 6 -11 15 -8 20 8
14 -9 11 -34 -7 -12 -8 -22 -13 -22 -9 0 5 60 45 68 45 2 0 0 -4 -3 -10z"/>
<path d="M2720 1965 c0 -16 16 -20 24 -6 3 5 -1 11 -9 15 -9 3 -15 0 -15 -9z"/>
<path d="M2536 1945 c-26 -24 -26 -25 -25 -162 1 -76 3 -130 6 -120 4 14 26
24 36 15 1 -2 16 7 34 20 17 12 36 22 42 22 6 0 10 6 9 13 -2 6 4 11 12 9 11
-3 11 1 -3 16 -16 17 -16 20 -2 32 9 7 13 21 10 31 -4 12 -1 21 9 25 23 9 20
39 -7 67 -20 22 -23 23 -37 9 -8 -9 -19 -34 -25 -56 -13 -50 -41 -65 -32 -16
6 28 5 31 -8 20 -18 -15 -18 -15 -5 29 5 19 6 31 2 27 -4 -4 -13 -26 -19 -49
l-13 -42 4 47 c3 35 10 53 27 68 13 10 21 19 18 20 -3 0 -18 -11 -33 -25z"/>
<path d="M2716 1915 c17 -25 38 -32 49 -16 3 5 -4 12 -15 16 -11 3 -20 11 -20
16 0 5 -7 9 -15 9 -14 0 -13 -3 1 -25z"/>
<path d="M2840 1910 c0 -5 4 -10 9 -10 6 0 13 5 16 10 3 6 -1 10 -9 10 -9 0
-16 -4 -16 -10z"/>
<path d="M2431 1329 c-114 -83 -157 -113 -314 -219 -75 -50 -143 -100 -151
-112 -17 -24 -11 -48 13 -48 22 0 246 148 291 193 19 19 80 67 135 107 55 40
106 80 113 89 14 17 16 51 4 51 -5 0 -46 -27 -91 -61z"/>
<path d="M1485 956 c-38 -17 -61 -50 -76 -113 -15 -62 -28 -75 -180 -189 -116
-87 -129 -94 -153 -84 -15 5 -47 10 -72 10 -54 0 -86 -27 -105 -88 -15 -50 -7
-83 30 -124 24 -27 35 -32 81 -32 48 -1 55 2 81 34 18 21 29 46 29 65 1 56 23
83 130 160 58 41 123 91 146 110 41 35 42 35 92 24 91 -21 152 23 160 116 4
52 3 56 -31 90 -39 39 -77 45 -132 21z"/>
<path d="M2248 881 c-1 -5 -64 -55 -138 -111 -120 -91 -137 -101 -165 -95 -82
18 -100 17 -135 -7 -34 -23 -35 -26 -38 -95 l-3 -72 38 -25 c39 -27 59 -30
111 -20 46 9 69 37 88 104 16 59 19 62 123 144 138 109 155 128 147 160 -6 26
-21 35 -28 17z"/>
<path d="M2484 699 c-104 -62 -104 -62 -104 -196 0 -109 1 -115 25 -137 43
-40 170 -99 195 -91 27 9 161 97 179 118 8 10 11 52 9 137 l-3 123 -38 13
c-21 8 -65 27 -98 44 -33 16 -68 30 -77 30 -10 0 -49 -18 -88 -41z"/>
</g>
</svg>
